<svg xmlns="http://www.w3.org/2000/svg" width="720" height="480" viewBox="0 0 720 480" role="img" aria-label="Mempool Meltdown cartoon-real painting">
  <defs>
    <linearGradient id="bg" x1="0" y1="0" x2="0" y2="1">
      <stop offset="0%" stop-color="#0b1b46"/>
      <stop offset="55%" stop-color="#1f4f9b"/>
      <stop offset="100%" stop-color="#141422"/>
    </linearGradient>
  </defs>
  <rect width="720" height="480" fill="url(#bg)"/>
  <rect x="46" y="354" width="628" height="76" rx="16" fill="#2c2b39"/>
  <path d="M44 336L210 276L332 308L474 260L676 330V366H44Z" fill="#243258"/>
  <rect x="94" y="112" width="96" height="86" rx="10" fill="#8bd0ff"/>
  <rect x="206" y="142" width="118" height="78" rx="10" fill="#6bbaf4"/>
  <rect x="342" y="108" width="108" height="118" rx="10" fill="#95dcff"/>
  <rect x="466" y="138" width="146" height="76" rx="10" fill="#72c0fa"/>
  <rect x="160" y="236" width="118" height="88" rx="10" fill="#a8e5ff"/>
  <rect x="292" y="238" width="132" height="84" rx="10" fill="#6fbef8"/>
  <rect x="438" y="246" width="126" height="90" rx="10" fill="#9cddff"/>
  <path d="M82 390Q166 340 238 392T372 390T510 396T664 382" stroke="#ffb457" stroke-width="18" fill="none" stroke-linecap="round"/>
  <circle cx="554" cy="98" r="44" fill="#ffd671" opacity="0.7"/>
</svg>
