<svg xmlns="http://www.w3.org/2000/svg" width="32" height="32" viewBox="0 0 120 120" fill="none">
  <ellipse cx="35" cy="22" rx="18" ry="22" fill="#4a4a5a"/>
  <ellipse cx="85" cy="22" rx="18" ry="22" fill="#4a4a5a"/>
  <ellipse cx="35" cy="22" rx="12" ry="16" fill="#f5c6d0"/>
  <ellipse cx="85" cy="22" rx="12" ry="16" fill="#f5c6d0"/>
  <ellipse cx="60" cy="58" rx="42" ry="38" fill="#6b6b7b"/>
  <ellipse cx="60" cy="54" rx="36" ry="26" fill="#2a2a3a"/>
  <ellipse cx="60" cy="68" rx="22" ry="16" fill="#e8e8f0"/>
  <ellipse cx="44" cy="52" rx="11" ry="10" fill="#e8e8f0"/>
  <ellipse cx="76" cy="52" rx="11" ry="10" fill="#e8e8f0"/>
  <ellipse cx="46" cy="52" rx="5.5" ry="6" fill="#1a1a2e"/>
  <ellipse cx="78" cy="52" rx="5.5" ry="6" fill="#1a1a2e"/>
  <circle cx="48" cy="49" r="2.5" fill="white"/>
  <circle cx="80" cy="49" r="2.5" fill="white"/>
  <ellipse cx="60" cy="66" rx="5" ry="3.5" fill="#2a2a3a"/>
  <path d="M48 34 L52 28 L58 32 L64 24 L70 30" stroke="#22c55e" stroke-width="2.5" fill="none" stroke-linecap="round" stroke-linejoin="round"/>
  <circle cx="70" cy="30" r="2" fill="#22c55e"/>
</svg>
